<svg xmlns="http://www.w3.org/2000/svg" xml:space="preserve" fill="#363a4f"
    style="fill-rule:evenodd;clip-rule:evenodd;stroke-linecap:round;stroke-linejoin:round" viewBox="0 0 24 24">
    <path d="M12 0c10 0 12 2 12 12s-2 12-12 12S0 22 0 12 2 0 12 0" style="fill:#cad3f5;fill-rule:nonzero" />
    <path d="M3 21 21 3" style="fill:none;fill-rule:nonzero;stroke:#363a4f;stroke-width:2px" />
    <path
        d="M10.031 12.582V3.618l-1.602.004c-1.772.004-2.024.029-2.57.248a3.56 3.56 0 0 0-2.145 2.563c-.087.41-.087 10.709.004 11.127q.111.528.36.983c.248.455.425-.03 0 0L2.896 19.72c.212.693.368.55 0 0a5.5 5.5 0 0 1-.784-1.862c-.083-.385-.087-.5-.1-5.485-.02-5.427-.008-5.837.175-6.536A5.17 5.17 0 0 1 6.285 2.07c.26-.046.853-.058 2.823-.063 2.426-.004 2.496 0 2.538.075.027.055.04 8.855.04 8.855s0-.371 0 0z" />
    <path
        d="M3051 7329c-63-12-159-60-210-105-105-91-157-220-149-372 4-79 9-100 41-164 47-97 118-168 215-216 67-33 84-37 171-40 79-3 107 0 160 18 217 73 348 284 311 500-43 257-287 429-539 379"
        style="fill-rule:nonzero" transform="matrix(.00414 0 0 -.00414 -5.99 36.486)" />
    <path
        d="M13.675 8.93c0-.835 0 .768 0 0 .004-3.983.015-6.888.028-6.898.012-.016.84-.029 1.834-.029 1.44 0 1.887.013 2.177.062a5.2 5.2 0 0 1 2.027.807c.477.32.205-.163 0 0-.307.44.273-.335 0 0-.278.278.46-.418-.087.128-.349.349-1.336 1.38-2.456 2.5-1.22 1.22-2.14 2.065-3.523 3.43" />
    <path
        d="m32.367 35.5 3.477.077c1.098 0 2-.903 2-2V8.888c0-1.098.177-.921-.92-.921L27 18.008c-1.097 0 0-1.097 0 0L10.653 35.5c0 1.097-1.098 0 0 0h4.979"
        style="fill:none;fill-rule:nonzero;stroke:#363a4f;stroke-width:1px"
        transform="translate(-2.244 -1.491)scale(.6142)" />
    <path
        d="M24.999 21.552c4.774.5 8.501 4.542 8.501 9.448 0 5.243-4.257 9.5-9.5 9.5-4.951 0-9.022-3.795-9.461-8.632l.702-.711c4.198-4.251 4.272-4.119 8.508-8.354z"
        style="fill:none;stroke:#363a4f;stroke-width:1px" transform="translate(-2.244 -1.491)scale(.6142)" />
    <circle cx="24" cy="31" r="3" style="fill:none;stroke:#363a4f;stroke-width:1px"
        transform="translate(-2.244 -1.491)scale(.6142)" />
    <path
        d="M24.937 24.481 24 23.85l-.937.631m7.456 7.456L31.15 31l-.631-.937m-7.456 7.456.937.631.937-.631m-7.456-7.456L16.85 31l.631.937"
        style="fill:none;fill-rule:nonzero;stroke:#363a4f;stroke-width:1px"
        transform="translate(-2.244 -1.491)scale(.6142)" />
</svg>