<svg xmlns="http://www.w3.org/2000/svg" style="display: none;">
  <symbol id="icon-layout-split" viewBox="0 0 24 24" fill="none" stroke="currentColor" stroke-width="2"
    stroke-linecap="round" stroke-linejoin="round">
    <path d="M4 4m0 1a1 1 0 0 1 1 -1h14a1 1 0 0 1 1 1v14a1 1 0 0 1 -1 1h-14a1 1 0 0 1 -1 -1z" />
    <path d="M12 4l0 16" />
  </symbol>

  <symbol id="dropdown-chevron" viewBox="0 0 24 24" fill="none" stroke="currentColor" stroke-width="2"
    stroke-linecap="round" stroke-linejoin="round">
    <path d="M6 9l6 6l6 -6" />
  </symbol>

  <symbol id="icon-player-play" viewBox="0 0 24 24" fill="none" stroke="currentColor" stroke-width="2"
    stroke-linecap="round" stroke-linejoin="round">
    <path d="M7 4v16l13-8z" />
  </symbol>

  <symbol id="icon-player-pause" viewBox="0 0 24 24" fill="none" stroke="currentColor" stroke-width="2"
    stroke-linecap="round" stroke-linejoin="round">
    <path
      d="M6 6a1 1 0 0 1 1-1h2a1 1 0 0 1 1 1v12a1 1 0 0 1-1 1H7a1 1 0 0 1-1-1zm8 0a1 1 0 0 1 1-1h2a1 1 0 0 1 1 1v12a1 1 0 0 1-1 1h-2a1 1 0 0 1-1-1z" />
  </symbol>

  <symbol id="icon-volume" viewBox="0 0 24 24" fill="none" stroke="currentColor" stroke-width="2" stroke-linecap="round"
    stroke-linejoin="round">
    <path
      d="M15 8a5 5 0 0 1 0 8m2.7-11a9 9 0 0 1 0 14M6 15H4a1 1 0 0 1-1-1v-4a1 1 0 0 1 1-1h2l3.5-4.5A.8.8 0 0 1 11 5v14a.8.8 0 0 1-1.5.5z" />
  </symbol>

  <symbol id="icon-volume2" viewBox="0 0 24 24" fill="none" stroke="currentColor" stroke-width="2"
    stroke-linecap="round" stroke-linejoin="round">
    <path
      d="M15 8a5 5 0 0 1 0 8m-9-1H4a1 1 0 0 1-1-1v-4a1 1 0 0 1 1-1h2l3.5-4.5A.8.8 0 0 1 11 5v14a.8.8 0 0 1-1.5.5z" />
  </symbol>

  <symbol id="icon-volume-off" viewBox="0 0 24 24" fill="none" stroke="currentColor" stroke-width="2"
    stroke-linecap="round" stroke-linejoin="round">
    <path
      d="M15 8a5 5 0 0 1 1.912 4.934m-1.377 2.602A5 5 0 0 1 15 16m2.7-11a9 9 0 0 1 2.362 11.086m-1.676 2.299A9 9 0 0 1 17.7 19M9.069 5.054 9.5 4.5A.8.8 0 0 1 11 5v2m0 4v8a.8.8 0 0 1-1.5.5L6 15H4a1 1 0 0 1-1-1v-4a1 1 0 0 1 1-1h2l1.294-1.664" />
  </symbol>

  <symbol id="icon-fullscreen-enter" viewBox="0 0 24 24" fill="none" stroke="currentColor" stroke-width="2"
    stroke-linecap="round" stroke-linejoin="round">
    <path d="M16 4h4v4m-6 2 6-6M8 20H4v-4m0 4 6-6m6 6h4v-4m-6-2 6 6M8 4H4v4m0-4 6 6" />
  </symbol>

  <symbol id="icon-fullscreen-exit" viewBox="0 0 24 24" fill="none" stroke="currentColor" stroke-width="2"
    stroke-linecap="round" stroke-linejoin="round">
    <path d="M5 9h4V5M3 3l6 6m-4 6h4v4m-6 2 6-6m10-6h-4V5m0 4 6-6m-2 12h-4v4m0-4 6 6" />
  </symbol>

  <symbol id="icon-plug" viewBox="0 0 24 24" fill="none" stroke="currentColor" stroke-width="2" stroke-linecap="round"
    stroke-linejoin="round">
    <path d="M9.785 6 18 14.215l-2.054 2.054a5.81 5.81 0 1 1-8.215-8.215zM4 20l3.5-3.5M15 4l-3.5 3.5M20 9l-3.5 3.5" />
  </symbol>

  <symbol id="icon-plug-x" viewBox="0 0 24 24" fill="none" stroke="currentColor" stroke-width="2" stroke-linecap="round"
    stroke-linejoin="round">
    <path
      d="M13.55 17.733a5.806 5.806 0 0 1-7.356-4.052 5.81 5.81 0 0 1 1.537-5.627L9.785 6l7.165 7.165M4 20l3.5-3.5M15 4l-3.5 3.5M20 9l-3.5 3.5M16 16l4 4m0-4-4 4" />
  </symbol>
</svg>