<svg xmlns="http://www.w3.org/2000/svg" style="display: none;">
  <symbol id="layout-split" viewBox="0 0 24 24" fill="none" stroke="currentColor" stroke-width="2"
    stroke-linecap="round" stroke-linejoin="round">
    <path d="M4 4m0 1a1 1 0 0 1 1 -1h14a1 1 0 0 1 1 1v14a1 1 0 0 1 -1 1h-14a1 1 0 0 1 -1 -1z" />
    <path d="M12 4l0 16" />
  </symbol>

  <symbol id="swap" width="24" height="24" viewBox="0 0 24 24" fill="currentColor">
    <path stroke="none" d="M0 0h24v24H0z" fill="none" />
    <path d="M8 2h-4a2 2 0 0 0 -2 2v4a2 2 0 0 0 2 2h4a2 2 0 0 0 2 -2v-4a2 2 0 0 0 -2 -2z" />
    <path d="M20 14h-4a2 2 0 0 0 -2 2v4a2 2 0 0 0 2 2h4a2 2 0 0 0 2 -2v-4a2 2 0 0 0 -2 -2z" />
    <path
      d="M16.707 2.293a1 1 0 0 1 .083 1.32l-.083 .094l-1.293 1.293h3.586a3 3 0 0 1 2.995 2.824l.005 .176v3a1 1 0 0 1 -1.993 .117l-.007 -.117v-3a1 1 0 0 0 -.883 -.993l-.117 -.007h-3.585l1.292 1.293a1 1 0 0 1 -1.32 1.497l-.094 -.083l-3 -3a.98 .98 0 0 1 -.28 -.872l.036 -.146l.04 -.104c.058 -.126 .14 -.24 .245 -.334l2.959 -2.958a1 1 0 0 1 1.414 0z" />
    <path
      d="M3 12a1 1 0 0 1 .993 .883l.007 .117v3a1 1 0 0 0 .883 .993l.117 .007h3.585l-1.292 -1.293a1 1 0 0 1 -.083 -1.32l.083 -.094a1 1 0 0 1 1.32 -.083l.094 .083l3 3a.98 .98 0 0 1 .28 .872l-.036 .146l-.04 .104a1.02 1.02 0 0 1 -.245 .334l-2.959 2.958a1 1 0 0 1 -1.497 -1.32l.083 -.094l1.291 -1.293h-3.584a3 3 0 0 1 -2.995 -2.824l-.005 -.176v-3a1 1 0 0 1 1 -1z" />
  </symbol>

  <symbol id="dropdown-chevron" viewBox="0 0 24 24" fill="none" stroke="currentColor" stroke-width="2"
    stroke-linecap="round" stroke-linejoin="round">
    <path d="M6 9l6 6l6 -6" />
  </symbol>

  <symbol id="icon-player-play" viewBox="0 0 24 24" fill="currentColor" stroke="currentColor" stroke-width="2"
    stroke-linecap="round" stroke-linejoin="round">
    <path d="M7 4v16l13-8z" />
  </symbol>

  <symbol id="icon-player-pause" viewBox="0 0 24 24" fill="currentColor" stroke="currentColor" stroke-width="2"
    stroke-linecap="round" stroke-linejoin="round">
    <path
      d="M6 6a1 1 0 0 1 1-1h2a1 1 0 0 1 1 1v12a1 1 0 0 1-1 1H7a1 1 0 0 1-1-1zm8 0a1 1 0 0 1 1-1h2a1 1 0 0 1 1 1v12a1 1 0 0 1-1 1h-2a1 1 0 0 1-1-1z" />
  </symbol>

  <symbol id="icon-volume" viewBox="0 0 24 24" fill="none" stroke="currentColor" stroke-width="2" stroke-linecap="round"
    stroke-linejoin="round">
    <path
      d="M15 8a5 5 0 0 1 0 8m2.7-11a9 9 0 0 1 0 14M6 15H4a1 1 0 0 1-1-1v-4a1 1 0 0 1 1-1h2l3.5-4.5A.8.8 0 0 1 11 5v14a.8.8 0 0 1-1.5.5z" />
  </symbol>

  <symbol id="icon-volume2" viewBox="0 0 24 24" fill="none" stroke="currentColor" stroke-width="2"
    stroke-linecap="round" stroke-linejoin="round">
    <path
      d="M15 8a5 5 0 0 1 0 8m-9-1H4a1 1 0 0 1-1-1v-4a1 1 0 0 1 1-1h2l3.5-4.5A.8.8 0 0 1 11 5v14a.8.8 0 0 1-1.5.5z" />
  </symbol>

  <symbol id="icon-volume3" viewBox="0 0 24 24" fill="none" stroke="currentColor" stroke-width="2"
    stroke-linecap="round" stroke-linejoin="round">
    <path stroke="none" d="M0 0h24v24H0z" />
    <path d="M6 15H4a1 1 0 0 1-1-1v-4a1 1 0 0 1 1-1h2l3.5-4.5A.8.8 0 0 1 11 5v14a.8.8 0 0 1-1.5.5zm10-5 4 4m0-4-4 4" />
  </symbol>

  <symbol id="icon-volume-off" viewBox="0 0 24 24" fill="none" stroke="currentColor" stroke-width="2"
    stroke-linecap="round" stroke-linejoin="round">
    <path stroke="none" d="M0 0h24v24H0z" />
    <path
      d="M15 8a5 5 0 0 1 1.912 4.934m-1.377 2.602A5 5 0 0 1 15 16m2.7-11a9 9 0 0 1 2.362 11.086m-1.676 2.299A9 9 0 0 1 17.7 19M9.069 5.054 9.5 4.5A.8.8 0 0 1 11 5v2m0 4v8a.8.8 0 0 1-1.5.5L6 15H4a1 1 0 0 1-1-1v-4a1 1 0 0 1 1-1h2l1.294-1.664M3 3l18 18" />
  </symbol>

  <symbol id="icon-fullscreen-enter" viewBox="0 0 24 24" fill="none" stroke="currentColor" stroke-width="2"
    stroke-linecap="round" stroke-linejoin="round">
    <path d="M16 4h4v4m-6 2 6-6M8 20H4v-4m0 4 6-6m6 6h4v-4m-6-2 6 6M8 4H4v4m0-4 6 6" />
  </symbol>

  <symbol id="icon-fullscreen-exit" viewBox="0 0 24 24" fill="none" stroke="currentColor" stroke-width="2"
    stroke-linecap="round" stroke-linejoin="round">
    <path d="M5 9h4V5M3 3l6 6m-4 6h4v4m-6 2 6-6m10-6h-4V5m0 4 6-6m-2 12h-4v4m0-4 6 6" />
  </symbol>

  <symbol id="icon-plug" viewBox="0 0 24 24" fill="none" stroke="currentColor" stroke-width="2" stroke-linecap="round"
    stroke-linejoin="round">
    <path
      d="M21,13.5l0,5.417c0,0.594-0.451,1.083-1,1.083l-16,0c-0.549,0-1-0.489-1-1.083l0-10.833c0-0.594,0.451-1.083,1-1.083l10.474,0"
      stroke-width="2.086" />
    <path d="M16,3l-4,4l-4-4M17,7l4,0l0,4M16,12l5-5" stroke-width="2" />
  </symbol>

  <symbol id="icon-plug-x" viewBox="0 0 24 24" fill="none" stroke="currentColor" stroke-width="2" stroke-linecap="round"
    stroke-linejoin="round">
    <path
      d="M21,13.5l0,5.417c0,0.594-0.451,1.083-1,1.083l-16,0c-0.549,0-1-0.489-1-1.083l0-10.833c0-0.594,0.451-1.083,1-1.083l10.474,0"
      stroke-width="2.086" />
    <path d="M16,3l-4,4l-4-4M17,11l4-4m-4,0l4,4" stroke-width="2" />
  </symbol>
</svg>